<svg width="22" height="22" viewBox="0 0 22 22" fill="none" xmlns="http://www.w3.org/2000/svg">
<g clip-path="url(#clip0_334_1629)">
<path d="M8.33936 19.7512C8.79545 20.7768 9.80682 21.5 11.0005 21.5C12.1941 21.5 13.2055 20.7768 13.6616 19.7512C12.8199 19.7923 11.9446 19.82 11.0005 19.82C10.0563 19.82 9.18104 19.7923 8.33936 19.7512Z" fill="black"/>
<path d="M20.2648 15.305C19.1577 13.9089 17.2996 11.1646 17.2996 8.48C17.2996 5.81804 15.5894 3.42318 13.0996 2.54287C13.0694 1.41055 12.1387 0.5 11.0005 0.5C9.86142 0.5 8.93156 1.41055 8.90129 2.54287C6.41069 3.42318 4.70047 5.81804 4.70047 8.48C4.70047 11.1655 2.84324 13.9089 1.73528 15.305C1.36569 15.7712 1.25142 16.3869 1.43037 16.9522C1.6051 17.5041 2.04019 17.9317 2.5946 18.0946C3.56564 18.3811 5.15742 18.7036 7.58505 18.8683C8.63587 18.9388 9.76569 18.98 11.0005 18.98C12.2345 18.98 13.3643 18.9388 14.4151 18.8683C16.8436 18.7036 18.4345 18.3811 19.4064 18.0946C19.9608 17.9317 20.3951 17.5041 20.5698 16.9522C20.7487 16.3869 20.6336 15.7712 20.2648 15.305Z" fill="black"/>
</g>
<defs>
<clipPath id="clip0_334_1629">
<rect width="21" height="21" fill="white" transform="translate(0.5 0.5)"/>
</clipPath>
</defs>
</svg>
