<svg width="32" height="34" viewBox="0 0 32 34" fill="none" xmlns="http://www.w3.org/2000/svg">
<path d="M27.1307 8.04771H21.7046V6.43817C21.7046 4.73066 20.9424 3.09309 19.5856 1.8857C18.2288 0.678305 16.3885 0 14.4697 0C12.5509 0 10.7107 0.678305 9.35391 1.8857C7.99711 3.09309 7.23487 4.73066 7.23487 6.43817V8.04771H1.80872C1.32902 8.04771 0.868961 8.21729 0.529761 8.51914C0.190561 8.82099 0 9.23038 0 9.65726V27.3622C0 28.6429 0.571682 29.871 1.58928 30.7766C2.60688 31.6821 3.98705 32.1909 5.42615 32.1909H23.5133C24.9524 32.1909 26.3326 31.6821 27.3502 30.7766C28.3678 29.871 28.9395 28.6429 28.9395 27.3622V9.65726C28.9395 9.23038 28.7489 8.82099 28.4097 8.51914C28.0705 8.21729 27.6105 8.04771 27.1307 8.04771ZM10.8523 6.43817C10.8523 5.58442 11.2334 4.76563 11.9118 4.16193C12.5902 3.55824 13.5103 3.21909 14.4697 3.21909C15.4291 3.21909 16.3492 3.55824 17.0276 4.16193C17.706 4.76563 18.0872 5.58442 18.0872 6.43817V8.04771H10.8523V6.43817ZM25.322 27.3622C25.322 27.7891 25.1315 28.1985 24.7923 28.5003C24.4531 28.8022 23.993 28.9718 23.5133 28.9718H5.42615C4.94645 28.9718 4.48639 28.8022 4.14719 28.5003C3.80799 28.1985 3.61743 27.7891 3.61743 27.3622V11.2668H7.23487V12.8763C7.23487 13.3032 7.42543 13.7126 7.76463 14.0145C8.10383 14.3163 8.56388 14.4859 9.04358 14.4859C9.52328 14.4859 9.98334 14.3163 10.3225 14.0145C10.6617 13.7126 10.8523 13.3032 10.8523 12.8763V11.2668H18.0872V12.8763C18.0872 13.3032 18.2777 13.7126 18.6169 14.0145C18.9561 14.3163 19.4162 14.4859 19.8959 14.4859C20.3756 14.4859 20.8356 14.3163 21.1748 14.0145C21.514 13.7126 21.7046 13.3032 21.7046 12.8763V11.2668H25.322V27.3622Z" fill="#F8F8F8"/>
<ellipse cx="26.2397" cy="27.0403" rx="5.76007" ry="6.24007" fill="white"/>
<path d="M23.6374 27.0856C23.6374 25.7016 23.8854 24.6176 24.3814 23.8336C24.8854 23.0496 25.7174 22.6576 26.8774 22.6576C28.0374 22.6576 28.8654 23.0496 29.3614 23.8336C29.8654 24.6176 30.1174 25.7016 30.1174 27.0856C30.1174 28.4776 29.8654 29.5696 29.3614 30.3616C28.8654 31.1536 28.0374 31.5496 26.8774 31.5496C25.7174 31.5496 24.8854 31.1536 24.3814 30.3616C23.8854 29.5696 23.6374 28.4776 23.6374 27.0856ZM28.4614 27.0856C28.4614 26.4936 28.4214 25.9976 28.3414 25.5976C28.2694 25.1896 28.1174 24.8576 27.8854 24.6016C27.6614 24.3456 27.3254 24.2176 26.8774 24.2176C26.4294 24.2176 26.0894 24.3456 25.8574 24.6016C25.6334 24.8576 25.4814 25.1896 25.4014 25.5976C25.3294 25.9976 25.2934 26.4936 25.2934 27.0856C25.2934 27.6936 25.3294 28.2056 25.4014 28.6216C25.4734 29.0296 25.6254 29.3616 25.8574 29.6176C26.0894 29.8656 26.4294 29.9896 26.8774 29.9896C27.3254 29.9896 27.6654 29.8656 27.8974 29.6176C28.1294 29.3616 28.2814 29.0296 28.3534 28.6216C28.4254 28.2056 28.4614 27.6936 28.4614 27.0856Z" fill="black"/>
</svg>
