<svg width="30" height="31" viewBox="0 0 30 31" fill="none" xmlns="http://www.w3.org/2000/svg">
<circle cx="15" cy="15.115" r="15" fill="#D9D9D9"/>
<path d="M11.0012 10.667H14.0012V12.3337H11.0012V10.667ZM16.0012 10.667H19.0012V12.3337H16.0012V10.667Z" fill="black"/>
<path d="M23 13.1667V5.66667C23 5.22464 22.7893 4.80072 22.4142 4.48816C22.0391 4.17559 21.5304 4 21 4H9C8.46957 4 7.96086 4.17559 7.58579 4.48816C7.21071 4.80072 7 5.22464 7 5.66667V13.1667C6.46957 13.1667 5.96086 13.3423 5.58579 13.6548C5.21071 13.9674 5 14.3913 5 14.8333V24H7V14.8333H23V24H25V14.8333C25 14.3913 24.7893 13.9674 24.4142 13.6548C24.0391 13.3423 23.5304 13.1667 23 13.1667ZM9 5.66667H21V13.1667H9V5.66667Z" fill="black"/>
</svg>
