<svg width="34" height="38" viewBox="0 0 34 38" fill="none" xmlns="http://www.w3.org/2000/svg">
<path d="M16.9997 15.5454V22.9036H26.1488C25.7471 25.2699 24.5415 27.2737 22.7333 28.6209L28.2505 33.4055C31.4651 30.0892 33.3196 25.2183 33.3196 19.4319C33.3196 18.0847 33.2115 16.7891 33.0105 15.5456L16.9997 15.5454Z" fill="#4285F4"/>
<path d="M7.47246 22.6164L6.22811 23.681L1.82349 27.5154C4.62076 33.7163 10.354 38 16.9994 38C21.5893 38 25.4374 36.3073 28.2502 33.4055L22.7329 28.6209C21.2184 29.7609 19.2865 30.4519 16.9994 30.4519C12.5794 30.4519 8.82405 27.1183 7.47941 22.6273L7.47246 22.6164Z" fill="#34A853"/>
<path d="M1.8235 10.4845C0.664476 13.0408 0 15.9254 0 18.9999C0 22.0744 0.664476 24.959 1.8235 27.5152C1.8235 27.5324 7.47996 22.6098 7.47996 22.6098C7.13997 21.4698 6.939 20.2608 6.939 18.9997C6.939 17.7386 7.13997 16.5296 7.47996 15.3896L1.8235 10.4845Z" fill="#FBBC05"/>
<path d="M16.9997 7.56545C19.5034 7.56545 21.7288 8.5327 23.5061 10.3982L28.3742 4.95734C25.4224 1.88284 21.5898 0 16.9997 0C10.3543 0 4.62076 4.26636 1.82349 10.4846L7.47978 15.39C8.82424 10.8991 12.5797 7.56545 16.9997 7.56545Z" fill="#EA4335"/>
</svg>
