<svg width="30" height="30" viewBox="0 0 30 30" fill="none" xmlns="http://www.w3.org/2000/svg">
<circle cx="15" cy="15" r="15" fill="#D9D9D9"/>
<path d="M10.5 21.4429V23.4429M19.5 21.4429V23.4429M7.8 13.2869C6.9 13.3069 6 13.7139 6 14.4429V18.4429C6 20.0999 7.209 21.4429 8.7 21.4429H21.3C22.791 21.4429 24 20.0999 24 18.4429V14.4429C24 13.6309 23.1 13.2669 22.2 13.2869M7.8 13.2869C8.7 13.2669 9.60001 13.6309 9.60001 14.4429C9.60001 15.8059 9.82501 17.4429 11.6 17.4429H18.4C20.175 17.4429 20.4 15.8059 20.4 14.4429C20.4 13.7129 21.3 13.3079 22.2 13.2869M7.8 13.2869V10.4429C7.8 8.78587 9.009 7.44287 10.5 7.44287H19.5C20.991 7.44287 22.2 8.78587 22.2 10.4429V13.2869" stroke="black" stroke-width="1.5" stroke-linecap="round" stroke-linejoin="round"/>
</svg>
