<svg width="30" height="30" viewBox="0 0 30 30" fill="none" xmlns="http://www.w3.org/2000/svg">
<circle cx="15" cy="15" r="15" fill="#D9D9D9"/>
<path d="M9.36108 4L6.91278 4.68934L5 9.72241L6.47093 10.8281L7.68425 8.0937L8.43761 8.33775L7.77174 15.8139H14.3054L14.7119 11.4358L14.7517 11.0324H14.9505L14.7119 8.33775L15.4675 8.0937L16.6782 10.8281L18.1495 9.72241L16.2363 4.68934L13.7884 4C13.5454 4.19276 13.2494 4.30931 12.9268 4.39597C12.5115 4.50605 12.0431 4.55735 11.5748 4.55735C11.1064 4.55735 10.638 4.50605 10.2227 4.39597C9.90014 4.30931 9.6041 4.19325 9.36108 4ZM15.4675 11.9289L15.4012 12.6262H23.3015L23.2352 11.9289H15.4675ZM15.3172 13.5227L14.1375 26.1739H16.9079L18.9625 15.3706H19.7402L21.7948 26.1739H24.5652L23.3855 13.5227H15.3172Z" fill="black"/>
</svg>
