<svg width="22" height="22" viewBox="0 0 22 22" fill="none" xmlns="http://www.w3.org/2000/svg">
<path d="M11 1.00003C5.477 1.00003 1 5.47703 1 11C1 16.523 5.477 21 11 21C16.523 21 21 16.523 21 11C21 5.47703 16.523 1.00003 11 1.00003Z" stroke="#F8F8F8" stroke-width="1.5" stroke-linecap="round" stroke-linejoin="round"/>
<path d="M3.271 17.346C3.271 17.346 5.5 14.5 11 14.5C16.5 14.5 18.73 17.346 18.73 17.346M11 11C11.7956 11 12.5587 10.684 13.1213 10.1214C13.6839 9.55874 14 8.79568 14 8.00003C14 7.20438 13.6839 6.44132 13.1213 5.87871C12.5587 5.3161 11.7956 5.00003 11 5.00003C10.2043 5.00003 9.44128 5.3161 8.87868 5.87871C8.31607 6.44132 8 7.20438 8 8.00003C8 8.79568 8.31607 9.55874 8.87868 10.1214C9.44128 10.684 10.2043 11 11 11Z" stroke="#F8F8F8" stroke-width="1.5" stroke-linecap="round" stroke-linejoin="round"/>
</svg>
