<svg width="36" height="36" viewBox="0 0 36 36" fill="none" xmlns="http://www.w3.org/2000/svg">
<g id="Group 20">
<g id="Group">
<path id="Vector" d="M17.88 1C8.55718 1 1 8.55718 1 17.88C1 27.2028 8.55718 34.76 17.88 34.76C27.2028 34.76 34.76 27.2028 34.76 17.88C34.76 8.55718 27.2028 1 17.88 1Z" stroke="#F8F8F8" stroke-width="1.5" stroke-linecap="round" stroke-linejoin="round"/>
<path id="Vector_2" d="M4.83334 28.5923C4.83334 28.5923 8.5959 23.7883 17.8799 23.7883C27.1639 23.7883 30.9281 28.5923 30.9281 28.5923M17.8799 17.8803C19.2229 17.8803 20.511 17.3468 21.4607 16.3971C22.4104 15.4474 22.9439 14.1593 22.9439 12.8163C22.9439 11.4732 22.4104 10.1852 21.4607 9.2355C20.511 8.28582 19.2229 7.75229 17.8799 7.75229C16.5368 7.75229 15.2488 8.28582 14.2991 9.2355C13.3494 10.1852 12.8159 11.4732 12.8159 12.8163C12.8159 14.1593 13.3494 15.4474 14.2991 16.3971C15.2488 17.3468 16.5368 17.8803 17.8799 17.8803Z" stroke="#F8F8F8" stroke-width="1.5" stroke-linecap="round" stroke-linejoin="round"/>
</g>
</g>
</svg>
