<svg width="11" height="19" viewBox="0 0 11 19" fill="none" xmlns="http://www.w3.org/2000/svg">
<path id="Vector" d="M7.48336 11.4497H7.07154L6.92558 11.1691C7.4541 9.9471 7.74458 8.38701 7.74401 6.77355C7.74401 5.43765 7.54528 4.13176 7.17296 3.021C6.80064 1.91024 6.27144 1.04451 5.6523 0.533286C5.03315 0.0220611 4.35186 -0.111699 3.69457 0.148922C3.03729 0.409542 2.43354 1.05284 1.95966 1.99746C1.48579 2.94208 1.16307 4.1456 1.03233 5.45583C0.901591 6.76605 0.968692 8.12414 1.22515 9.35835C1.48161 10.5926 1.91591 11.6475 2.47313 12.3896C3.03034 13.1318 3.68546 13.528 4.35562 13.528C5.19489 13.528 5.9664 12.9149 6.56068 11.8965L6.70142 12.1875V13.0084L9.30788 18.1937L10.0846 16.6454L7.48336 11.4497ZM4.35562 11.4497C3.0576 11.4497 2.00981 9.36101 2.00981 6.77355C2.00981 4.18609 3.0576 2.09742 4.35562 2.09742C5.65363 2.09742 6.70142 4.18609 6.70142 6.77355C6.70142 9.36101 5.65363 11.4497 4.35562 11.4497Z" fill="#1D1D1F"/>
</svg>
