<svg width="30" height="31" viewBox="0 0 30 31" fill="none" xmlns="http://www.w3.org/2000/svg">
<circle cx="15" cy="15.7965" r="15" fill="#D9D9D9"/>
<path d="M8.6 14.8571H21.4V7.46429C21.4 7.24643 21.3157 7.0375 21.1657 6.88345C21.0157 6.7294 20.8122 6.64286 20.6 6.64286H9.4C9.18783 6.64286 8.98434 6.7294 8.83431 6.88345C8.68429 7.0375 8.6 7.24643 8.6 7.46429V14.8571ZM8.6 16.5V25.5357C8.6 25.7536 8.68429 25.9625 8.83431 26.1166C8.98434 26.2706 9.18783 26.3571 9.4 26.3571H20.6C20.8122 26.3571 21.0157 26.2706 21.1657 26.1166C21.3157 25.9625 21.4 25.7536 21.4 25.5357V16.5H8.6ZM9.4 5H20.6C21.2365 5 21.847 5.25963 22.2971 5.72177C22.7471 6.18392 23 6.81072 23 7.46429V25.5357C23 26.1893 22.7471 26.8161 22.2971 27.2782C21.847 27.7404 21.2365 28 20.6 28H9.4C8.76348 28 8.15303 27.7404 7.70294 27.2782C7.25286 26.8161 7 26.1893 7 25.5357V7.46429C7 6.81072 7.25286 6.18392 7.70294 5.72177C8.15303 5.25963 8.76348 5 9.4 5ZM10.2 10.75H11.8V13.2143H10.2V10.75ZM10.2 18.1429H11.8V20.6071H10.2V18.1429Z" fill="black"/>
</svg>
