<svg width="28" height="27" viewBox="0 0 28 27" fill="none" xmlns="http://www.w3.org/2000/svg">
<ellipse cx="13.5955" cy="13.1522" rx="13.5955" ry="13.1522" fill="#D9D9D9"/>
<path d="M17.8599 7.84797V4.47224C17.8599 4.21645 17.7007 3.97112 17.4175 3.79024C17.1342 3.60937 16.7499 3.50775 16.3493 3.50775H10.3068C9.90621 3.50775 9.52198 3.60937 9.23868 3.79024C8.95539 3.97112 8.79623 4.21645 8.79623 4.47224V7.84797M17.8599 18.4574V21.8331C17.8599 22.0889 17.7007 22.3342 17.4175 22.5151C17.1342 22.696 16.7499 22.7976 16.3493 22.7976H10.3068C9.90621 22.7976 9.52198 22.696 9.23868 22.5151C8.95539 22.3342 8.79623 22.0889 8.79623 21.8331V18.4574" stroke="black" stroke-width="2" stroke-linecap="round" stroke-linejoin="round"/>
<path d="M13.5951 10.3675V13.261L16.6163 14.2255M22.6588 13.261C22.6588 14.7958 21.7039 16.2677 20.0041 17.353C18.3043 18.4383 15.9989 19.048 13.5951 19.048C11.1913 19.048 8.88589 18.4383 7.18612 17.353C5.48635 16.2677 4.53143 14.7958 4.53143 13.261C4.53143 11.7262 5.48635 10.2543 7.18612 9.16899C8.88589 8.08373 11.1913 7.47403 13.5951 7.47403C15.9989 7.47403 18.3043 8.08373 20.0041 9.16899C21.7039 10.2543 22.6588 11.7262 22.6588 13.261Z" stroke="black" stroke-width="2" stroke-linecap="round" stroke-linejoin="round"/>
</svg>
