<svg width="30" height="31" viewBox="0 0 30 31" fill="none" xmlns="http://www.w3.org/2000/svg">
<circle cx="15" cy="15.6972" r="15" fill="#D9D9D9"/>
<path d="M8.95652 10.0435C8.95652 10.0435 7.95217 11.2183 7.65217 12.0725C6.9687 14.0214 8.82609 15.1272 8.95652 17.145C9.16522 20.366 7 25.2609 7 25.2609H22.6522C22.6522 25.2609 20.487 20.366 20.6957 17.145C20.8261 15.1272 22.6835 14.0214 22 12.0725C21.7 11.2183 20.6957 10.0435 20.6957 10.0435M8.95652 10.0435C8.95652 10.0435 10.913 11.058 14.8261 11.058C18.7391 11.058 20.6957 10.0435 20.6957 10.0435M8.95652 10.0435V7.00006M20.6957 10.0435V7.00006" stroke="black" stroke-width="1.5" stroke-linecap="round" stroke-linejoin="round"/>
</svg>
